# xmcd
#
# Track frame offsets:
# 150
# 47013
# 76751
# 103741
# 158465
# 180927
# 236439
# 260360
# 298508
#
# Disc length: 4441 seconds
#
#
# Revision: 0
# Processed by: cddbd v1.5.2PL0 Copyright (c) Steve Scherf et al.
# Submitted via: FreeRIP 2.96 
#
DISCID=62115709
DTITLE=Donna Leon - Das Mädchen seiner Träume CD5v8
DYEAR=2009
DGENRE=Speech
TTITLE0=39 Brunetti sah keinen Grund
TTITLE1=40 Als ein Mann, der seit über 20 Jahren
TTITLE2=41 Nicht lange nachdem die beiden
TTITLE3=42 Lange nachdem Puccetti gegangen war
TTITLE4=43 Drei Tage später
TTITLE5=44 Den Maresciallo hatte Brunetti
TTITLE6=45 Wie hiess gleich wieder das Buch
TTITLE7=46 Hinter ihm öffnete sich die Tür
TTITLE8=47 Vianello war nirgends zu finden
EXTD=Commissario Brunttis siebzehnter Fall\ngelesen von Jochen Striebeck\nungekürzte Lesung
EXTT0=
EXTT1=
EXTT2=
EXTT3=
EXTT4=
EXTT5=
EXTT6=
EXTT7=
EXTT8=
PLAYORDER=
